<svg width="809" height="250" viewBox="0 0 809 250" fill="none" xmlns="http://www.w3.org/2000/svg">
<path d="M108.037 80.8722C111.494 74.8032 116.44 68.036 116.028 60.8088C115.663 54.3959 112.168 49.125 109.422 43.4026C106.855 38.0524 105.336 35.0553 104.009 29.7302C102.51 23.7181 102.558 21.2385 102.873 15C99.2248 22.6474 97.2554 24.753 97.6419 32.9272C98.1661 44.0066 105.386 52.2934 108.193 62.5634C109.079 65.8053 109.54 75.478 108.009 80.922L108.037 80.8722Z" fill="#5C008B"/>
<path d="M84.5056 106.759C65.3695 106.759 48.2041 115.153 36.4554 128.446C36.2467 128.683 36.0395 128.922 35.8343 129.161C26.2115 140.377 20.3853 154.943 20.3853 170.879C20.3853 174.026 20.6219 177.118 21.0599 180.143C25.5503 211.165 52.2396 235 84.5056 235C119.918 235 148.626 206.292 148.626 170.879C148.626 160.858 146.32 151.376 142.221 142.927C139.658 137.646 136.39 132.777 132.542 128.426C123.367 118.052 110.889 110.676 96.7485 107.941C92.7843 107.175 88.6936 106.759 84.5056 106.759ZM84.5056 138.492C107.416 138.492 125.99 157.066 125.99 179.977C125.99 202.887 107.416 221.461 84.5056 221.461C61.5949 221.461 43.0211 202.887 43.0211 179.977C43.0211 157.066 61.5949 138.492 84.5056 138.492Z" fill="#5C008B"/>
<path d="M37.4524 109.792C32.9289 119.232 36.2866 129.311 37.305 130.181C36.3987 133.508 26.4028 168.925 21.9991 183.813C16.0659 165.455 23.9646 120.255 37.4524 109.792Z" fill="#5C008B"/>
<path d="M142.047 117.39C137.18 129.862 139.946 138.339 144.439 148.23C139.826 143.21 133.767 137.057 130.099 132.934C131.403 131.596 134.488 121.723 142.047 117.39Z" fill="#5C008B"/>
<path d="M77.4983 28.4653C92.5997 47.961 97.4845 98.7493 96.6855 109.791C91.6599 111.662 49.1831 124.84 35.6292 129.74C39.4935 117.39 52.2367 106.759 60.4091 98.0857C68.5815 89.4119 87.6764 56.0998 77.4983 28.4653Z" fill="#5C008B"/>
<path d="M84.505 124.954C54.4855 124.954 30.1497 149.587 30.1497 179.977C30.1497 210.366 54.4855 235 84.505 235C114.525 235 138.86 210.366 138.86 179.977C138.86 149.587 114.525 124.954 84.505 124.954ZM84.505 138.492C107.416 138.492 125.99 157.066 125.99 179.977C125.99 202.888 107.416 221.461 84.505 221.461C61.5943 221.461 43.0205 202.888 43.0205 179.977C43.0205 157.066 61.5943 138.492 84.505 138.492Z" fill="#8F008C"/>
<path d="M81.5373 95.5559C75.2822 110.25 86.1289 118.45 96.0814 123.071C103.267 126.407 129.513 139.789 133.371 157.766C113.534 135.284 78.8595 132.274 78.8595 132.274C78.8595 132.274 64.4607 133.009 55.478 135.233C57.0649 121.565 62.3254 108.634 81.5373 95.5559Z" fill="#8F008C"/>
<path d="M84.2486 146.169L113.533 162.918L84.5863 179.89L55.4766 163.141L84.2486 146.169Z" stroke="#F28705" stroke-width="2" stroke-miterlimit="10" stroke-linecap="round" stroke-linejoin="round"/>
<path d="M55.4766 163.03L84.5047 179.779V213.783L55.4766 196.993V163.03Z" fill="#F28705" stroke="#F28705" stroke-width="2" stroke-miterlimit="10" stroke-linecap="round" stroke-linejoin="round"/>
<path d="M113.533 163.03V196.289L84.5049 213.783V179.891L113.533 163.03Z" stroke="#F28705" stroke-width="2" stroke-miterlimit="10" stroke-linecap="round" stroke-linejoin="round"/>
<path d="M238.938 93.1917C239.422 93.9985 239.866 95.0463 240.268 96.3361C240.671 97.6259 240.873 99.0372 240.873 100.569C240.873 103.23 240.288 105.206 239.12 106.495C237.951 107.785 236.317 108.431 234.222 108.431H207.372V124.274H234.826C235.31 125.161 235.773 126.209 236.216 127.418C236.66 128.628 236.882 130.039 236.882 131.652C236.882 134.312 236.278 136.268 235.068 137.517C233.858 138.767 232.246 139.392 230.23 139.392H207.614V166.362C206.727 166.604 205.477 166.826 203.864 167.027C202.252 167.229 200.559 167.33 198.785 167.33C194.996 167.33 192.355 166.684 190.863 165.395C189.372 164.105 188.626 161.766 188.626 158.38V103.23C188.626 100.166 189.533 97.7275 191.347 95.9134C193.161 94.0992 195.6 93.1917 198.664 93.1917H238.938Z" fill="#F28705"/>
<path d="M268.811 166.363C268.004 166.605 266.875 166.826 265.424 167.027C263.973 167.23 262.36 167.33 260.586 167.33C256.958 167.33 254.358 166.746 252.785 165.576C251.213 164.407 250.427 162.13 250.427 158.743V109.036C251.233 108.794 252.362 108.552 253.813 108.31C255.265 108.068 256.877 107.947 258.651 107.947C262.279 107.947 264.879 108.552 266.451 109.761C268.024 110.97 268.811 113.268 268.811 116.655V166.363ZM249.339 91.6197C249.339 88.8782 250.286 86.5405 252.181 84.6049C254.075 82.6702 256.555 81.7024 259.618 81.7024C262.683 81.7024 265.162 82.6702 267.057 84.6049C268.951 86.5405 269.899 88.8782 269.899 91.6197C269.899 94.4421 268.951 96.8202 267.057 98.7549C265.162 100.691 262.683 101.658 259.618 101.658C256.555 101.658 254.075 100.691 252.181 98.7549C250.286 96.8202 249.339 94.4421 249.339 91.6197Z" fill="#F28705"/>
<path d="M301.466 166.362C300.659 166.604 299.53 166.826 298.08 167.027C296.628 167.229 295.015 167.33 293.241 167.33C289.613 167.33 286.993 166.746 285.38 165.576C283.768 164.407 282.962 162.13 282.962 158.743V121.855C282.962 119.598 283.526 117.663 284.654 116.05C285.783 114.437 287.355 113.026 289.371 111.817C292.033 110.205 295.237 108.935 298.986 108.007C302.736 107.08 306.666 106.617 310.779 106.617C319.163 106.617 323.357 109.438 323.357 115.082C323.357 116.453 323.155 117.703 322.752 118.832C322.348 119.961 321.905 120.928 321.421 121.735C319.567 121.331 317.31 121.129 314.648 121.129C312.311 121.129 309.972 121.412 307.634 121.977C305.296 122.541 303.24 123.307 301.466 124.274V166.362Z" fill="#F28705"/>
<path d="M345.609 145.076C346.738 148.463 348.713 150.861 351.536 152.273C354.357 153.684 357.623 154.389 361.333 154.389C364.719 154.389 367.903 153.926 370.886 152.999C373.87 152.071 376.289 151.043 378.143 149.914C379.353 150.72 380.36 151.769 381.167 153.059C381.973 154.349 382.376 155.76 382.376 157.292C382.376 159.146 381.812 160.759 380.683 162.13C379.554 163.5 378.002 164.649 376.027 165.576C374.052 166.504 371.713 167.189 369.012 167.633C366.311 168.076 363.348 168.297 360.123 168.297C355.366 168.297 350.971 167.633 346.94 166.302C342.908 164.972 339.442 162.996 336.539 160.376C333.636 157.756 331.359 154.47 329.705 150.519C328.053 146.568 327.227 141.932 327.227 136.611C327.227 131.451 328.053 126.975 329.705 123.186C331.359 119.396 333.576 116.252 336.358 113.752C339.139 111.253 342.324 109.419 345.912 108.249C349.5 107.08 353.189 106.495 356.978 106.495C361.091 106.495 364.859 107.121 368.286 108.37C371.713 109.62 374.656 111.374 377.115 113.632C379.574 115.889 381.489 118.59 382.86 121.735C384.231 124.879 384.916 128.306 384.916 132.015C384.916 134.595 384.231 136.53 382.86 137.82C381.489 139.11 379.554 139.957 377.055 140.36L345.609 145.076ZM357.099 120.163C353.632 120.163 350.75 121.23 348.452 123.367C346.154 125.503 344.804 128.588 344.401 132.619L367.5 128.87C367.339 126.773 366.412 124.798 364.719 122.944C363.025 121.089 360.485 120.163 357.099 120.163Z" fill="#F28705"/>
<path d="M425.795 108.431V166.362C424.908 166.604 423.658 166.826 422.046 167.027C420.433 167.229 418.739 167.33 416.966 167.33C413.176 167.33 410.516 166.684 408.983 165.395C407.451 164.105 406.686 161.766 406.686 158.38V108.431H387.698C387.214 107.624 386.75 106.576 386.306 105.286C385.863 103.996 385.642 102.585 385.642 101.053C385.642 98.3113 386.246 96.3163 387.456 95.0661C388.665 93.8168 390.318 93.1917 392.414 93.1917H445.267C445.831 93.9985 446.315 95.0463 446.717 96.3361C447.12 97.6259 447.323 99.0372 447.323 100.569C447.323 103.23 446.717 105.206 445.509 106.495C444.299 107.785 442.646 108.431 440.55 108.431H425.795Z" fill="#F28705"/>
<path d="M475.381 166.362C474.575 166.604 473.447 166.826 471.995 167.027C470.544 167.229 468.931 167.33 467.158 167.33C463.529 167.33 460.908 166.745 459.296 165.576C457.684 164.407 456.877 162.13 456.877 158.743V87.7491C457.764 87.5071 458.933 87.2652 460.385 87.0233C461.836 86.7822 463.448 86.6608 465.222 86.6608C468.85 86.6608 471.451 87.2652 473.023 88.4749C474.595 89.6847 475.381 91.9819 475.381 95.3683V109.277C477.075 108.471 478.99 107.806 481.126 107.281C483.263 106.757 485.581 106.495 488.08 106.495C495.821 106.495 501.888 108.451 506.283 112.361C510.676 116.271 512.874 122.138 512.874 129.958V166.362C512.068 166.604 510.939 166.826 509.487 167.027C508.036 167.229 506.424 167.33 504.65 167.33C501.022 167.33 498.401 166.745 496.788 165.576C495.176 164.407 494.369 162.13 494.369 158.743V131.047C494.369 127.418 493.463 124.839 491.649 123.307C489.834 121.774 487.516 121.009 484.694 121.009C482.839 121.009 481.147 121.27 479.615 121.795C478.082 122.319 476.672 122.943 475.381 123.669V166.362Z" fill="#F28705"/>
<path d="M542.384 145.076C543.513 148.463 545.489 150.861 548.311 152.273C551.133 153.684 554.398 154.389 558.107 154.389C561.494 154.389 564.679 153.926 567.661 152.999C570.645 152.071 573.063 151.043 574.918 149.914C576.128 150.72 577.135 151.769 577.942 153.059C578.748 154.349 579.151 155.76 579.151 157.292C579.151 159.146 578.587 160.759 577.458 162.13C576.329 163.5 574.777 164.649 572.802 165.576C570.826 166.504 568.488 167.189 565.787 167.633C563.086 168.076 560.123 168.297 556.898 168.297C552.14 168.297 547.747 167.633 543.714 166.302C539.683 164.972 536.217 162.996 533.314 160.376C530.411 157.756 528.133 154.47 526.48 150.519C524.828 146.568 524.001 141.932 524.001 136.611C524.001 131.451 524.828 126.975 526.48 123.186C528.133 119.396 530.35 116.252 533.132 113.752C535.914 111.253 539.098 109.419 542.687 108.249C546.275 107.08 549.964 106.495 553.753 106.495C557.865 106.495 561.635 107.121 565.061 108.37C568.488 109.62 571.431 111.374 573.89 113.632C576.349 115.889 578.264 118.59 579.635 121.735C581.005 124.879 581.691 128.306 581.691 132.015C581.691 134.595 581.005 136.53 579.635 137.82C578.264 139.11 576.329 139.957 573.83 140.36L542.384 145.076ZM553.874 120.163C550.407 120.163 547.524 121.23 545.226 123.367C542.928 125.503 541.578 128.588 541.175 132.619L564.275 128.87C564.114 126.773 563.186 124.798 561.494 122.944C559.8 121.089 557.26 120.163 553.874 120.163Z" fill="#F28705"/>
<path d="M652.684 112.18C652.684 115.809 651.697 118.933 649.721 121.554C647.746 124.174 644.903 126.21 641.195 127.661C645.871 129.193 649.378 131.451 651.717 134.434C654.055 137.417 655.223 141.005 655.223 145.198C655.223 153.019 652.342 158.824 646.576 162.614C640.812 166.403 632.486 168.298 621.601 168.298C620.151 168.298 618.518 168.258 616.704 168.177C614.89 168.096 613.035 167.955 611.14 167.754C609.246 167.552 607.351 167.27 605.455 166.907C603.561 166.545 601.848 166.081 600.316 165.517C596.123 163.984 594.027 161.243 594.027 157.292V99.7231C594.027 98.1104 594.45 96.8611 595.296 95.9743C596.143 95.0874 597.373 94.402 598.986 93.9181C601.646 93.0313 604.952 92.3657 608.903 91.9223C612.853 91.4788 616.925 91.2576 621.118 91.2576C631.197 91.2576 638.977 92.971 644.46 96.397C649.943 99.8239 652.684 105.085 652.684 112.18ZM635.873 144.351C635.873 138.627 632.204 135.764 624.867 135.764H612.41V152.696C613.7 153.019 615.312 153.261 617.248 153.422C619.183 153.584 621.037 153.664 622.811 153.664C626.681 153.664 629.826 152.918 632.244 151.427C634.664 149.935 635.873 147.576 635.873 144.351ZM612.41 122.34H623.657C626.802 122.34 629.261 121.614 631.036 120.163C632.809 118.711 633.696 116.575 633.696 113.753C633.696 111.172 632.668 109.177 630.612 107.766C628.556 106.355 625.472 105.65 621.359 105.65C619.828 105.65 618.215 105.71 616.522 105.831C614.829 105.952 613.458 106.093 612.41 106.254V122.34Z" fill="#F28705"/>
<path d="M725.491 137.337C725.491 142.093 724.766 146.387 723.315 150.217C721.863 154.046 719.787 157.292 717.086 159.952C714.385 162.614 711.14 164.669 707.35 166.121C703.56 167.572 699.327 168.297 694.651 168.297C689.974 168.297 685.722 167.592 681.892 166.181C678.062 164.77 674.796 162.734 672.095 160.074C669.394 157.413 667.318 154.167 665.866 150.337C664.416 146.507 663.69 142.174 663.69 137.337C663.69 132.659 664.435 128.407 665.927 124.577C667.419 120.747 669.515 117.501 672.216 114.841C674.917 112.18 678.182 110.124 682.012 108.673C685.842 107.221 690.055 106.495 694.651 106.495C699.247 106.495 703.44 107.221 707.229 108.673C711.018 110.124 714.264 112.2 716.965 114.901C719.666 117.602 721.762 120.848 723.255 124.637C724.746 128.427 725.491 132.659 725.491 137.337ZM694.651 121.009C690.862 121.009 687.919 122.42 685.822 125.242C683.726 128.064 682.678 132.095 682.678 137.337C682.678 142.739 683.706 146.83 685.762 149.612C687.818 152.393 690.781 153.785 694.651 153.785C698.522 153.785 701.484 152.373 703.54 149.551C705.597 146.729 706.625 142.658 706.625 137.337C706.625 132.176 705.576 128.165 703.48 125.302C701.384 122.44 698.441 121.009 694.651 121.009Z" fill="#F28705"/>
<path d="M738.311 149.431C740.085 147.334 741.859 145.218 743.633 143.082C745.407 140.945 747.221 138.828 749.075 136.732L732.506 116.776C733.071 113.954 734.219 111.696 735.953 110.004C737.687 108.31 739.803 107.464 742.303 107.464C743.511 107.464 744.56 107.605 745.447 107.886C746.334 108.169 747.16 108.592 747.926 109.156C748.692 109.721 749.418 110.426 750.103 111.273C750.789 112.12 751.535 113.067 752.34 114.115L761.049 125.846L774.837 107.584C775.161 107.504 775.485 107.464 775.8 107.464C776.123 107.464 776.411 107.464 776.654 107.464C780.036 107.464 782.734 108.189 784.749 109.64C786.773 111.092 787.78 112.986 787.78 115.325C787.78 117.179 787.331 118.833 786.449 120.283C785.559 121.735 783.949 123.751 781.61 126.33L772.175 137.095L788.626 158.744C788.221 161.565 787.133 163.763 785.361 165.335C783.58 166.907 781.403 167.693 778.831 167.693C776.168 167.612 774.01 166.826 772.355 165.335C770.7 163.843 769.072 161.968 767.462 159.711L759.718 148.584L746.414 167.331C746.092 167.331 745.689 167.35 745.205 167.391C744.721 167.431 744.318 167.451 743.995 167.451C740.367 167.451 737.586 166.685 735.65 165.153C733.716 163.621 732.748 161.726 732.748 159.469C732.748 157.776 733.151 156.264 733.958 154.934C734.763 153.603 736.215 151.769 738.311 149.431Z" fill="#F28705"/>
</svg>
